<?xml version="1.0" encoding="utf-8"?>
<!-- Generator: Adobe Illustrator 23.0.3, SVG Export Plug-In . SVG Version: 6.00 Build 0)  -->
<svg version="1.1" xmlns="http://www.w3.org/2000/svg" xmlns:xlink="http://www.w3.org/1999/xlink" x="0px" y="0px"
	 viewBox="0 0 1366 768" style="enable-background:new 0 0 1366 768;" xml:space="preserve">
<style type="text/css">
	.st0{fill:#1A3C40;stroke:#000000;stroke-width:0.25;stroke-miterlimit:10;}
	.st1{fill:#1D5C63;stroke:#000000;stroke-width:0.25;stroke-miterlimit:10;}
	.st2{fill:#595959;stroke:#000000;stroke-width:0.25;stroke-miterlimit:10;}
	.st3{fill:#FFEDDB;stroke:#000000;stroke-width:0.25;stroke-miterlimit:10;}
	.st4{fill:#EDCDBB;stroke:#000000;stroke-width:0.25;stroke-miterlimit:10;}
	.st5{fill:none;stroke:#000000;stroke-width:0.25;stroke-miterlimit:10;}
	.st6{fill:#417D7A;stroke:#000000;stroke-width:0.25;stroke-miterlimit:10;}
	.st7{fill:#EFD897;stroke:#000000;stroke-width:0.25;stroke-miterlimit:10;}
	.st8{fill:#C9BB93;stroke:#000000;stroke-width:0.25;stroke-miterlimit:10;}
	.st9{fill:#3F3F3F;stroke:#000000;stroke-width:0.25;stroke-miterlimit:10;}
	.st10{fill:#FFFFFF;stroke:#000000;stroke-width:0.25;stroke-miterlimit:10;}
	.st11{stroke:#000000;stroke-width:0.25;stroke-miterlimit:10;}
	.st12{fill:#BF9270;stroke:#000000;stroke-width:0.25;stroke-miterlimit:10;}
</style>
<g id="Layer_3">
	<g>
		<path class="st0" d="M698.87,434.56c8.77,13.93,57.87-5.6,66.65-8.64c52.64-18.18,111.49-8.14,162.74,13.67
			c51.24,21.81,96.88,54.62,144.2,84c47.33,29.37,98.1,55.94,153.35,62.97c21.64,2.76,44.32,2.31,64.38-6.29
			c21.84-9.36,38.78-27.65,51.43-47.78c7.67-12.18,14.09-25.55,15.41-39.87c0.4-4.29,0.32-8.55-0.16-12.76
			c-50.45-28.11-104.6-49.88-160.08-66.04c-96.35-28.06-196.84-39.65-297.12-43.49c-26.38-1-52.93-1.47-78.99,2.68
			C775.03,380.27,732.02,402.39,698.87,434.56z"/>
		<path class="st1" d="M697.85,426.22c-0.67,3.59-0.25,6.31,1.03,8.34c33.15-32.17,76.16-54.29,121.81-61.55
			c26.06-4.15,52.62-3.68,78.99-2.68c100.27,3.84,200.77,15.44,297.12,43.49c55.49,16.16,109.64,37.92,160.08,66.04
			c-2.04-18.22-11.5-35.54-22.77-50.35c-39.51-51.91-101.4-82.29-164.09-100.31c-111.57-32.07-232.74-29.91-343.1,6.11
			c-21.84,7.13-43.36,15.94-62.95,28.04c-15.84,9.79-28.52,22.13-41.7,35.07C715.31,405.26,699.79,415.91,697.85,426.22z"/>
	</g>
	<g>
		<path class="st1" d="M954.96,665.32c-45.68-68.3-108.92-127.55-187.91-147.91c-61.1-15.75-125.41-6.95-188.51-6.97
			c-195.86-0.03-389.83-91.21-514.8-242.03c-4.16-5.01-8.23-10.08-12.29-15.19c1.21-0.97,2.45-1.91,3.71-2.82
			c30.52-22.09,71.37-24.51,108.54-18.34c85.3,14.17,158.2,67.23,228.38,117.74c70.17,50.51,145.22,101.58,231.21,110.63
			c46.4,4.89,93.88-2.85,139.62,6.37c49.02,9.88,92.81,39.02,126.22,76.21c13.91,15.5,26.2,32.42,37.08,50.17
			c10.5,17.09,24.85,38.03,29.9,57.6C957.24,655.17,958.45,662.13,954.96,665.32z"/>
		<path class="st0" d="M954.96,665.32c-1.09,1-2.64,1.63-4.81,1.69c-5.88,0.18-19.38-17.06-23.48-21.12
			c-15.29-15.14-30.14-30.89-47.61-43.56c-55.07-39.95-128.7-44.36-195.94-34.02c-67.24,10.35-131.94,33.75-199.16,44.21
			c-145.55,22.66-303.33-21.41-405.7-127.33c-31.06-32.15-57.45-70.85-65.33-114.85c-7.59-42.47,5.07-90.27,38.51-117.12
			c4.06,5.1,8.13,10.18,12.29,15.19c124.97,150.81,318.94,242,514.8,242.03c63.09,0.01,127.41-8.78,188.51,6.97
			C846.04,537.78,909.28,597.03,954.96,665.32z"/>
	</g>
</g>
<g id="final1">
	<g>
		<path class="st2" d="M712.61,210h-46.59v-0.08L666,209v-0.52l1.65-1.4l34.2-29.08c0,0,10.89,0.68,15.79,7.13
			C721.19,189.78,721.62,197.43,712.61,210z"/>
		<path class="st3" d="M713,210v44c-6.77,7.27-13.04,10.9-18.63,12.25c-5.5,1.32-10.34,0.45-14.37-1.32
			c-6.7-2.94-11.13-8.37-12.52-10.26C667.16,254.25,667,254,667,254l-0.98-44H713z"/>
		<path class="st4" d="M694.37,266.25c-0.19,3.04-0.28,6.74-0.32,9.67c-6.45,1.13-11.01,0.81-14.05,0.13v-11.12
			c3.79,1.67,8.31,2.54,13.41,1.53C693.73,266.4,694.05,266.33,694.37,266.25z"/>
		<path class="st5" d="M648.6,336.39c-0.49-1.17-1.02-2.3-1.6-3.39"/>
		<path class="st6" d="M751,333l66.58-86.55C815,246.33,813,246,813,246l-0.15-1.97c-10.83,7.04-46.4,30.21-54.85,36.97
			c-10,8-54,3-54,3c-2-4-2-10-2-10c-2.92,0.88-5.57,1.5-7.95,1.92c-6.45,1.13-11.01,0.81-14.05,0.13c-3.53-0.79-5-2.05-5-2.05
			s3,11-3,14c-1.72,0.86-6.71,2.78-12.96,5.09C643.44,298.85,620,307,620,307l-5,66c0,0,22.24,10.76,37.56,26.21
			c-0.02,0.17-0.04,0.34-0.06,0.51c0,0.01,0,0.01,0,0.01C649.55,424.38,644,445,644,445c2.47,1.12,4.95,2.15,7.42,3.1
			c43.48,16.79,86.51,9.08,97.75,6.58c0.3-0.06,0.57-0.13,0.82-0.18c1.31-0.31,2.01-0.5,2.01-0.5C745,387,751,333,751,333z
			 M654.2,377.87l-0.05-0.05L638,361c0,0,5.36-12.51,10.6-24.61C653.38,347.62,654.67,362.62,654.2,377.87z"/>
		<path class="st7" d="M754,618c0,0-0.47,0.21-1.28,0.52c-2.73,1.05-9.32,3.25-14.72,2.48c-0.45-0.06-1.01-0.62-1.67-1.61
			c-4.66-6.98-14.1-35.44-22.55-62.82c-7.94-25.66-15.02-50.38-16.49-55.57l24.64-42.69c12.91-0.75,22.69-2.61,27.24-3.63
			L752.76,576L754,618z"/>
		<path class="st8" d="M721.93,458.31L697.29,501c-0.19-0.66-0.29-1-0.29-1s-52,96-56,110c-0.7,2.44-1.79,4.24-3.11,5.55
			C631.6,621.78,620,617,620,617c0.06-0.28,0.11-0.56,0.17-0.83c23.37-116.21,29.59-155.23,31.25-168.07
			C677.28,458.09,702.98,459.41,721.93,458.31z"/>
		<path class="st3" d="M848,221c0,0-17,19-20,23c-0.44,0.59-1.08,1.05-1.84,1.4c-2.31,1.07-5.78,1.19-8.58,1.05
			C815,246.33,813,246,813,246l-0.15-1.97L811,219c6,2,7,9,7,9c4-7,12-18,12-18c0.18-0.04,0.35-0.08,0.52-0.11
			C843.13,207.38,848,221,848,221z"/>
		<path class="st9" d="M763,643c-6.9,6.13-19.67,6.98-25.26-0.17c-1.7-2.18-2.74-5.1-2.74-8.83c0-6.17,0.6-11.01,1.33-14.61
			c0.66,0.99,1.22,1.55,1.67,1.61c5.4,0.77,11.99-1.43,14.72-2.48c0.03,0.03,0.06,0.06,0.09,0.09
			C758.92,624.74,769.62,637.12,763,643z"/>
		<path class="st9" d="M637.89,615.55c-0.02,0.39-0.03,0.8-0.05,1.22c-0.21,4.59-0.7,11.07-1.84,16.23c-2,9-14,13-26,9
			c-2.12-0.71-3.02-2.13-3.07-4c-0.15-5.77,7.84-15.75,13.24-21.83c-0.06,0.27-0.11,0.55-0.17,0.83
			C620,617,631.6,621.78,637.89,615.55z"/>
		<path class="st1" d="M659.04,293.09C643.44,298.85,620,307,620,307l-5,66c0,0,22.24,10.76,37.56,26.21
			c-0.02,0.17-0.04,0.34-0.06,0.51c0,0.01,0,0.01,0,0.01C649.55,424.38,644,445,644,445c2.47,1.12,4.95,2.15,7.42,3.1
			c43.48,16.79,86.51,9.08,97.75,6.58c0.3-0.06,0.57-0.13,0.82-0.18c0.01-0.5,0.01-1,0.01-1.5C750,385,713.51,325.53,659.04,293.09z
			 M654.2,377.87l-0.05-0.05L638,361c0,0,5.36-12.51,10.6-24.61C653.38,347.62,654.67,362.62,654.2,377.87z"/>
		<path class="st10" d="M654.21,377.49c0,0-0.31,12.8-1.76,22.65"/>
		<path class="st11" d="M637.89,615.55c-0.02,0.39-0.03,0.8-0.05,1.22C633.1,629.19,621.08,638,607,638h-0.07
			c-0.15-5.77,7.84-15.75,13.24-21.83c-0.06,0.27-0.11,0.55-0.17,0.83C620,617,631.6,621.78,637.89,615.55z"/>
		<path class="st11" d="M752.81,618.61c-1.11,10.18-6.85,18.97-15.07,24.22c-1.7-2.18-2.74-5.1-2.74-8.83
			c0-6.17,0.6-11.01,1.33-14.61c0.66,0.99,1.22,1.55,1.67,1.61c5.4,0.77,11.99-1.43,14.72-2.48
			C752.75,618.55,752.78,618.58,752.81,618.61z"/>
		<path class="st12" d="M693.41,266.46c-1.69,5.53-6.83,9.54-12.91,9.54c-0.17,0-0.33,0-0.5-0.01v-11.06
			C683.79,266.6,688.31,267.47,693.41,266.46z"/>
		<path class="st4" d="M833,223.5c0,8.13-2.52,15.68-6.84,21.9c-2.31,1.07-5.78,1.19-8.58,1.05C815,246.33,813,246,813,246
			l-0.15-1.97L811,219c6,2,7,9,7,9c4-7,12-18,12-18c0.18-0.04,0.35-0.08,0.52-0.11C832.12,214.12,833,218.71,833,223.5z"/>
		<path class="st4" d="M711,216.5c0,21.26-17.24,38.5-38.5,38.5c-1.7,0-3.38-0.11-5.02-0.33C667.16,254.25,667,254,667,254l-0.98-44
			h44.43C710.81,212.11,711,214.28,711,216.5z"/>
		<path class="st11" d="M717.64,185.13C706.75,200.2,689.02,210,669,210c-1,0-1.99-0.02-2.98-0.08L666,209v-0.52l1.65-1.4
			l34.2-29.08C701.85,178,712.74,178.68,717.64,185.13z"/>
	</g>
	<g>
	</g>
	<g>
	</g>
	<g>
	</g>
	<g>
	</g>
	<g>
	</g>
	<g>
	</g>
	<g>
	</g>
	<g>
	</g>
	<g>
	</g>
	<g>
	</g>
	<g>
	</g>
	<g>
	</g>
	<g>
	</g>
	<g>
	</g>
	<g>
	</g>
</g>
</svg>
